<?xml version="1.0" encoding="UTF-8" standalone="no"?>
<svg
   xmlns:dc="http://purl.org/dc/elements/1.1/"
   xmlns:cc="http://creativecommons.org/ns#"
   xmlns:rdf="http://www.w3.org/1999/02/22-rdf-syntax-ns#"
   xmlns:svg="http://www.w3.org/2000/svg"
   xmlns="http://www.w3.org/2000/svg"
   xmlns:sodipodi="http://sodipodi.sourceforge.net/DTD/sodipodi-0.dtd"
   xmlns:inkscape="http://www.inkscape.org/namespaces/inkscape"
   width="1030"
   height="141"
   viewBox="0 0 1030 141"
   version="1.1"
   id="svg112"
   sodipodi:docname="Grupo 273.svg"
   inkscape:version="1.0.1 (3bc2e813f5, 2020-09-07)">
  <metadata
     id="metadata116">
    <rdf:RDF>
      <cc:Work
         rdf:about="">
        <dc:format>image/svg+xml</dc:format>
        <dc:type
           rdf:resource="http://purl.org/dc/dcmitype/StillImage" />
      </cc:Work>
    </rdf:RDF>
  </metadata>
  <sodipodi:namedview
     pagecolor="#ffffff"
     bordercolor="#666666"
     borderopacity="1"
     objecttolerance="10"
     gridtolerance="10"
     guidetolerance="10"
     inkscape:pageopacity="0"
     inkscape:pageshadow="2"
     inkscape:window-width="1920"
     inkscape:window-height="1017"
     id="namedview114"
     showgrid="false"
     inkscape:zoom="0.94532625"
     inkscape:cx="507.1217"
     inkscape:cy="56.82055"
     inkscape:window-x="-8"
     inkscape:window-y="-8"
     inkscape:window-maximized="1"
     inkscape:current-layer="svg112" />
  <defs
     id="defs4">
    <style
       id="style2">.a{fill:#fff;font-size:18px;font-family:Barlow-Bold, Barlow;font-weight:700;}.b{fill:#f6ebe1;}.c,.e{fill:none;}.c{stroke:#fff;stroke-width:2px;}.d{stroke:none;}</style>
  </defs>
  <g
     id="g449"
     transform="translate(5.7210691,-0.12744141)">
    <g
       id="g369">
      <text
         class="a"
         id="text10"
         x="534.60938"
         y="101"><tspan
           x="498.09644"
           y="119"
           id="tspan6">LIVRE DE</tspan><tspan
           x="482.4364"
           y="139"
           xml:space="preserve"
           id="tspan8"> PARABENOS</tspan></text>
      <g
         id="g249"
         transform="translate(31.714233,2)">
        <path
           class="b"
           d="m 539.845,34.725 c 0,0 0,-0.009 0,-0.014 0,-0.005 0.01,-0.038 0.011,-0.057 a 0.941,0.941 0 0 0 0.018,-0.114 c 0,-0.022 0,-0.044 0,-0.066 a 1.027,1.027 0 0 0 0,-0.113 c 0,-0.02 0,-0.04 -0.01,-0.061 a 0.976,0.976 0 0 0 -0.04,-0.162 c 0,0 0,0 0,-0.007 v -0.006 a 0.959,0.959 0 0 0 -0.072,-0.152 c -0.01,-0.018 -0.022,-0.034 -0.033,-0.051 a 0.968,0.968 0 0 0 -0.067,-0.09 c -0.015,-0.017 -0.029,-0.034 -0.044,-0.05 a 0.967,0.967 0 0 0 -0.083,-0.074 c -0.016,-0.013 -0.031,-0.027 -0.048,-0.039 l -0.01,-0.008 c -0.35,-0.244 -8.658,-5.949 -15.788,-3.422 a 10.671,10.671 0 0 0 -1.08,0.456 12.011,12.011 0 0 0 0.966,-4.593 c 0,-7.563 -8.151,-13.49 -8.5,-13.738 l -0.013,-0.008 c -0.015,-0.01 -0.031,-0.018 -0.046,-0.028 a 0.919,0.919 0 0 0 -0.1,-0.057 c -0.019,-0.009 -0.039,-0.016 -0.058,-0.024 a 0.962,0.962 0 0 0 -0.112,-0.035 c -0.019,0 -0.038,-0.01 -0.057,-0.013 a 0.966,0.966 0 0 0 -0.35,0 c -0.019,0 -0.038,0.008 -0.057,0.013 a 0.972,0.972 0 0 0 -0.112,0.035 c -0.02,0.007 -0.039,0.015 -0.058,0.024 a 0.889,0.889 0 0 0 -0.1,0.057 c -0.016,0.009 -0.031,0.017 -0.046,0.028 l -0.013,0.008 c -0.324,0.232 -7.446,5.412 -8.393,12.252 a 10.815,10.815 0 0 0 -0.106,1.487 12.014,12.014 0 0 0 0.965,4.59 10.46,10.46 0 0 0 -1.079,-0.453 11.909,11.909 0 0 0 -4.444,-0.631 v 0 c -5.75,0.214 -11.062,3.858 -11.34,4.052 l -0.011,0.009 c -0.016,0.011 -0.029,0.024 -0.044,0.036 a 1,1 0 0 0 -0.087,0.078 c -0.015,0.016 -0.028,0.032 -0.042,0.048 a 0.9,0.9 0 0 0 -0.069,0.093 c -0.011,0.017 -0.022,0.033 -0.032,0.05 a 0.953,0.953 0 0 0 -0.072,0.152 v 0.006 0.007 a 1,1 0 0 0 -0.04,0.162 c 0,0.021 0,0.041 -0.01,0.061 a 0.92,0.92 0 0 0 0,0.113 c 0,0.022 0,0.044 0,0.066 a 0.99,0.99 0 0 0 0.018,0.114 c 0,0.019 0.01,0.038 0.012,0.057 0.01,0.019 0,0.009 0,0.014 a 26.888,26.888 0 0 0 2.312,5.293 22.885,22.885 0 0 0 1.369,2.125 1.024,1.024 0 0 0 0.1,0.14 14.91,14.91 0 0 0 4.919,4.42 0.976,0.976 0 0 0 0.168,0.088 10.576,10.576 0 0 0 1.238,0.534 11.675,11.675 0 0 0 3.924,0.644 22.249,22.249 0 0 0 10.337,-3.122 v 2.943 h -3.737 a 3.325,3.325 0 0 0 -0.971,6.505 v 18.89 a 5.68,5.68 0 0 0 11.36,0 V 54.295 a 3.325,3.325 0 0 0 -0.971,-6.505 h -3.738 v -2.943 a 22.239,22.239 0 0 0 10.337,3.122 11.693,11.693 0 0 0 3.924,-0.644 11.858,11.858 0 0 0 3.771,-2.25 0.967,0.967 0 0 0 0.164,-0.147 19.355,19.355 0 0 0 3.863,-4.91 26.886,26.886 0 0 0 2.301,-5.293 z M 513.531,15.21 v 6.927 l -3.325,-3.325 a 25.2,25.2 0 0 1 3.323,-3.602 z m -4.425,5.249 4.425,4.425 v 5.576 l -5.995,-5.995 a 12.389,12.389 0 0 1 1.567,-4.006 z m -8.777,11.131 3.134,6.574 -2.363,-0.837 h -0.01 l -8.737,-3.1 a 21.479,21.479 0 0 1 7.97,-2.637 z m -6.337,8.806 a 25.186,25.186 0 0 1 -2.285,-4.337 l 6.529,2.314 z m 4.436,4.4 a 12.408,12.408 0 0 1 -3.251,-2.817 l 5.65,-2.693 5.255,1.862 z m 2.467,0.976 7.776,-3.707 3.567,1.264 c -2.456,1.343 -7.143,3.407 -11.346,2.447 z M 508.94,40.1 v 0 l -2.889,-1.024 -3.57,-7.488 a 9.222,9.222 0 0 1 2.194,0.475 c 4.432,1.57 7.064,6.649 8.21,9.435 z m -1.5,-12.989 6.091,6.091 v 3.785 c -2.086,-1.862 -5.594,-5.59 -6.093,-9.871 z m 2.354,25.383 a 1.383,1.383 0 1 1 0,-2.766 h 3.737 v 2.766 z m 8.446,9.353 h -2.56 a 0.971,0.971 0 1 0 0,1.942 h 2.56 v 2.913 h -2.56 a 0.971,0.971 0 1 0 0,1.942 h 2.56 v 2.913 h -2.56 a 0.971,0.971 0 1 0 0,1.942 h 2.544 a 3.736,3.736 0 0 1 -7.459,-0.318 V 60.215 a 3.829,3.829 0 0 0 1.331,0.241 7.262,7.262 0 0 0 3.118,-0.94 c 1.327,-0.642 2.136,-0.986 3.026,-0.518 z m 0,-4.915 a 5.8,5.8 0 0 0 -3.872,0.831 c -1.541,0.745 -2.457,1.114 -3.6,0.25 v -3.576 h 2.766 v 0.795 a 0.971,0.971 0 1 0 1.942,0 v -0.795 h 2.767 z m 0.971,-7.2 a 1.383,1.383 0 0 1 0,2.766 h -3.738 v -2.766 z m 17.437,-15.5 -6.529,2.314 2.024,-4.245 a 25.21,25.21 0 0 1 4.502,1.927 z m -10.725,-2.56 a 12.411,12.411 0 0 1 4.3,0.141 l -2.693,5.65 -5.255,1.862 z M 515.474,15.214 a 21.481,21.481 0 0 1 5.15,6.633 l -5.15,5.15 z m 0,14.53 5.866,-5.866 a 9.22,9.22 0 0 1 0.285,2.227 c 0,4.7 -3.907,8.879 -6.151,10.89 z m 7.919,2.724 -3.707,7.775 -3.567,1.264 c 1.06,-2.588 3.401,-7.143 7.27,-9.043 z m 5.694,13.03 c -4.432,1.571 -9.674,-0.717 -12.319,-2.16 l 6.834,-2.422 7.489,3.57 a 9.224,9.224 0 0 1 -2.007,1.008 z m 3.678,-2.365 -6.574,-3.134 11.106,-3.935 a 21.482,21.482 0 0 1 -4.535,7.064 z"
           id="path12" />
        <g
           class="c"
           transform="translate(468)"
           id="g18">
          <circle
             class="d"
             cx="46.5"
             cy="46.5"
             r="46.5"
             id="circle14" />
          <circle
             class="e"
             cx="46.5"
             cy="46.5"
             r="45.5"
             id="circle16" />
        </g>
        <path
           class="c"
           d="M 545.642,14.217 480.988,78.871"
           id="path20" />
      </g>
    </g>
    <g
       id="g391">
      <text
         class="a"
         id="text26"
         x="948.69226"
         y="101"><tspan
           x="914.91528"
           y="119"
           id="tspan24">VEGANO</tspan></text>
      <g
         id="g235"
         transform="translate(25.655518,2)">
        <g
           class="c"
           transform="translate(885)"
           id="g32">
          <circle
             class="d"
             cx="46.5"
             cy="46.5"
             r="46.5"
             id="circle28" />
          <circle
             class="e"
             cx="46.5"
             cy="46.5"
             r="45.5"
             id="circle30" />
        </g>
        <g
           transform="rotate(-9,629.79463,-5760.9248)"
           id="g36">
          <path
             class="b"
             d="m 15.786,37.285 0.872,-0.732 a 11.183,11.183 0 0 1 -1.311,-9.63 l -0.052,0.072 -0.939,-5.917 6.224,-8.566 a 25.067,25.067 0 0 1 2.526,3.732 l -3.485,4.8 a 15.1,15.1 0 0 1 4.2,-2.073 l 0.273,-0.377 c 0.027,0.092 0.042,0.187 0.065,0.28 0.448,-0.128 0.9,-0.239 1.357,-0.323 a 2.157,2.157 0 0 1 0.263,-0.059 c 0.168,-0.036 0.341,-0.065 0.512,-0.1 A 11.764,11.764 0 0 0 25.41,15.983 1.133,1.133 0 0 0 25.293,15.743 28.71,28.71 0 0 0 21.375,10.057 0.756,0.756 0 0 0 21.309,9.98 73.914,73.914 0 0 0 10.74,0.212 1.088,1.088 0 0 0 9.219,0.442 L 9.21,0.454 v 0 C 8.9,0.886 3.651,8.342 1.219,15.521 a 1.059,1.059 0 0 0 -0.074,0.228 16.869,16.869 0 0 0 -1.03,7.585 C 1.3,30.85 6.933,35.245 14.287,34.554 l 0.4,2.547 a 1.086,1.086 0 0 0 0.621,0.819 1.987,1.987 0 0 1 0.478,-0.635 z M 14.539,6.21 12.456,9.077 11.6,3.677 c 0.833,0.684 1.847,1.547 2.939,2.533 z M 9.449,4.015 v 0 L 10.872,13 6.194,9.6 C 7.349,7.4 8.542,5.437 9.449,4.015 Z m -4.249,7.557 6.151,4.469 0.937,5.92 L 3.5,15.572 c 0.452,-1.248 1.022,-2.585 1.7,-4 z M 2.259,23 A 12.866,12.866 0 0 1 2.8,17.753 v 0 L 12.773,25 13.945,32.4 C 7.8,32.923 3.262,29.326 2.259,23 Z m 11.616,-4.961 -0.938,-5.92 3.2,-4.408 0.388,0.375 q 1.43,1.4 2.6,2.718 z"
             id="path34" />
        </g>
        <path
           class="b"
           d="m 932.62723,61.062087 -1.38216,1.590803 a 0.891,0.891 0 0 0 1.34412,1.167102 l 1.38315,-1.590959 c 4.8016,3.665998 10.60868,3.056061 14.69042,-1.639271 a 9.631,9.631 0 0 0 1.44269,-2.32734 0.887,0.887 0 0 0 0.0866,-0.201025 23.549,23.549 0 0 0 1.49776,-5.44433 0.707,0.707 0 0 0 0.0135,-0.08111 60.443,60.443 0 0 0 0.56848,-11.752624 v 0 a 0.89,0.89 0 0 0 -0.94174,-0.831923 l -0.0128,0.002 a 56.31,56.31 0 0 0 -13.64034,2.918754 0.93,0.93 0 0 0 -0.18374,0.07365 13.8,13.8 0 0 0 -5.2874,3.34127 c -4.08455,4.696789 -3.87652,10.536137 0.4215,14.774966 z m 17.92521,-17.914681 c 0.008,0.882589 -6.1e-4,1.971368 -0.0453,3.172145 l -2.88594,0.201947 z m -4.58241,5.273777 4.44307,-0.310876 c -0.0104,0.145414 -0.0206,0.291815 -0.0317,0.439361 q -0.12462,1.629557 -0.33261,3.05869 l -7.29184,0.510986 z m -4.86601,5.599146 8.63562,-0.605361 a 20.5,20.5 0 0 1 -1.00765,3.546291 l -10.83955,0.760038 z m -4.86487,5.599978 11.5395,-0.809136 a 6.2,6.2 0 0 1 -0.46001,0.611489 c -3.43558,3.955137 -8.13853,4.485369 -12.17639,1.460792 z m 12.97016,-17.640159 -4.8816,5.61579 -0.33055,-4.714331 c 1.98655,-0.43411 3.84533,-0.722437 5.21215,-0.901459 z m -6.96523,1.313777 0.43726,6.199928 -3.21387,3.699305 -0.62502,-8.86841 a 35.325,35.325 45 0 1 3.40412,-1.034255 z m -5.13445,1.743672 0.70326,10.052753 -4.01705,4.624338 c -3.55844,-3.577381 -3.68895,-8.307197 -0.25322,-12.261346 a 10.515,10.515 0 0 1 3.56587,-2.416576 z"
           id="path38" />
      </g>
    </g>
    <g
       id="g345">
      <g
         id="g269"
         transform="translate(36.772949,2)">
        <g
           transform="translate(72.867,53.03)"
           id="g44">
          <path
             class="b"
             d="m 280.571,452.025 a 28.117,28.117 0 0 1 -10.606,-2.171 l -0.5,-0.236 a 10.225,10.225 0 0 0 -2.819,-1.007 10.576,10.576 0 0 0 -1.925,-0.174 13.04,13.04 0 0 0 -3.819,0.607 11.806,11.806 0 0 0 -2.274,0.971 6.721,6.721 0 0 1 -3.1,0.96 c -0.163,0.011 -0.411,0.025 -0.718,0.025 a 7,7 0 0 1 -3.56,-0.867 c -2.591,-1.507 -3.594,-4.909 -3.669,-7.589 -0.082,-2.949 0.852,-5.429 2.437,-6.474 a 3.625,3.625 0 0 1 2.11,-0.549 12.815,12.815 0 0 0 2.386,-0.284 23.183,23.183 0 0 0 4.358,-1.533 c 1.718,-0.707 3,-1.25 4.037,-1.688 2.973,-1.257 3.663,-1.549 5.012,-1.584 h 0.251 a 9.477,9.477 0 0 1 3.746,0.882 c 0.49,0.189 1.01,0.388 1.639,0.609 a 61.118,61.118 0 0 0 9.833,2.437 c 1.1,0.2 2.138,0.388 3.1,0.61 1.939,-1.509 3.6,-2.243 5.081,-2.243 a 4.146,4.146 0 0 1 1.095,0.145 c 0.127,0.036 0.248,0.076 0.363,0.115 a 2.615,2.615 0 0 0 0.918,0.187 v 0 a 2.1,2.1 0 0 0 1.056,-0.284 3.915,3.915 0 0 1 1.816,-0.476 c 0.062,0 0.127,0 0.192,0 a 5.829,5.829 0 0 1 2.086,0.553 2.3,2.3 0 0 0 0.941,0.2 h 0.206 0.138 a 1.135,1.135 0 0 1 0.168,-0.012 1.224,1.224 0 0 1 0.347,0.051 5.029,5.029 0 0 1 1.658,0.495 3.946,3.946 0 0 1 0.526,7.2 c -0.068,0.042 -0.123,0.076 -0.17,0.112 l -9.182,6.86 c -0.1,0.075 -0.2,0.147 -0.306,0.211 a 23.672,23.672 0 0 1 -11.972,3.934 c -0.215,0.008 -0.423,0.011 -0.623,0.011 z m -15.846,-6.036 a 13.061,13.061 0 0 1 2.373,0.216 12.491,12.491 0 0 1 3.439,1.21 l 0.465,0.223 a 26.259,26.259 0 0 0 9.6,1.942 h 0.225 a 20.953,20.953 0 0 0 11.275,-3.56 c 0.052,-0.033 0.1,-0.069 0.157,-0.108 l 9.182,-6.862 c 0.119,-0.088 0.238,-0.165 0.349,-0.233 a 1.743,1.743 0 0 0 0.92,-1.576 c -0.056,-0.509 -0.477,-0.964 -1.255,-1.354 a 2.548,2.548 0 0 0 -0.576,-0.205 l -9.7,7.808 a 4.725,4.725 0 0 1 -3.606,1.165 c -0.753,0 -1.565,-0.066 -2.349,-0.129 -0.62,-0.05 -1.262,-0.1 -1.88,-0.122 -1.347,-0.045 -2.4,-0.179 -3.328,-0.3 a 18.86,18.86 0 0 0 -2.427,-0.206 10.144,10.144 0 0 0 -2.031,0.208 12.864,12.864 0 0 0 -2.271,0.676 1.224,1.224 0 0 1 -1.59,-0.68 1.225,1.225 0 0 1 0.681,-1.591 15.375,15.375 0 0 1 2.7,-0.8 12.69,12.69 0 0 1 2.508,-0.257 21.142,21.142 0 0 1 2.736,0.227 c 0.88,0.112 1.875,0.239 3.1,0.279 0.658,0.022 1.322,0.074 1.966,0.126 0.75,0.061 1.5,0.122 2.16,0.122 a 3.826,3.826 0 0 0 1.643,-0.253 0.988,0.988 0 0 1 0.079,-0.07 l 0.217,-0.176 c 0.5,-0.677 0.836,-1.7 0.514,-2.215 a 5.037,5.037 0 0 0 -3.213,-1.934 h -0.06 a 1.211,1.211 0 0 1 -0.635,-0.178 c -0.913,-0.216 -1.945,-0.4 -3.136,-0.621 a 63.318,63.318 0 0 1 -10.212,-2.535 c -0.674,-0.238 -1.223,-0.449 -1.707,-0.635 a 7.231,7.231 0 0 0 -2.864,-0.72 h -0.187 c -0.9,0.029 -1.392,0.237 -4.121,1.39 -1.045,0.442 -2.337,0.988 -4.066,1.7 a 24.671,24.671 0 0 1 -4.787,1.664 15.058,15.058 0 0 1 -2.791,0.335 c -0.607,0.024 -0.7,0.038 -0.862,0.147 -0.843,0.556 -1.393,2.35 -1.336,4.363 0.071,2.541 1.034,4.716 2.454,5.542 a 4.627,4.627 0 0 0 2.341,0.534 c 0.238,0 0.431,-0.011 0.556,-0.019 a 4.394,4.394 0 0 0 2.1,-0.677 14.02,14.02 0 0 1 2.709,-1.151 15.659,15.659 0 0 1 4.1,-0.708 c 0.15,0.001 0.296,-0.002 0.441,-0.002 z m 27.351,-7.8 a 3.232,3.232 0 0 1 0.433,1.089 l 5.248,-4.223 a 2.977,2.977 0 0 0 -0.865,-0.2 h -0.074 a 1.493,1.493 0 0 0 -0.715,0.215 l -0.966,0.709 a 1.265,1.265 0 0 1 -0.132,0.113 l -2.986,2.211 z m -2.655,-2.275 a 7.718,7.718 0 0 1 0.826,0.455 l 1.6,-1.183 a 1.8,1.8 0 0 0 -0.261,-0.018 4.606,4.606 0 0 0 -2.166,0.75 z"
             transform="translate(-247.577,-430.428)"
             id="path42" />
        </g>
        <g
           transform="translate(90.837,20.525)"
           id="g52">
          <path
             class="b"
             d="m 282.045,419.614 a 10.87,10.87 0 0 1 -10.8,-10.039 10.719,10.719 0 0 1 0.836,-5.043 l 3.944,-8.517 3.476,-7.226 a 1.966,1.966 0 0 1 1.7,-1.116 h 0.077 a 1.974,1.974 0 0 1 1.705,0.986 l 4,6.928 4.679,8.192 a 10.836,10.836 0 0 1 -9.449,15.836 z m -3.807,-22.556 -3.916,8.457 a 8.294,8.294 0 0 0 -0.637,3.882 8.415,8.415 0 0 0 8.361,7.77 h 0.134 a 8.392,8.392 0 0 0 7.331,-12.235 l -4.644,-8.128 -3.549,-6.147 z"
             transform="translate(-271.215,-387.67)"
             id="path46" />
          <g
             transform="translate(3.686,14.834)"
             id="g50">
            <path
               class="b"
               d="m 276.708,414.533 -0.136,-0.036 c -0.566,-0.2 -0.541,-1 -0.473,-1.59 a 11.745,11.745 0 0 1 0.62,-2.46 c 0.273,-0.765 1.243,-3.264 2.24,-3.264 h 0.074 l 0.137,0.036 c 0.566,0.2 0.541,1.005 0.473,1.591 a 11.772,11.772 0 0 1 -0.62,2.459 c -0.274,0.766 -1.243,3.264 -2.24,3.264 z"
               transform="translate(-276.064,-407.183)"
               id="path48" />
          </g>
        </g>
        <g
           class="c"
           transform="translate(52)"
           id="g58">
          <circle
             class="d"
             cx="46.5"
             cy="46.5"
             r="46.5"
             id="circle54" />
          <circle
             class="e"
             cx="46.5"
             cy="46.5"
             r="45.5"
             id="circle56" />
        </g>
      </g>
      <text
         class="a"
         id="text64"
         y="101"
         x="110"><tspan
           x="13.25"
           y="119"
           id="tspan60">DERMATOLOGICAMENTE</tspan><tspan
           x="72.326004"
           y="139"
           id="tspan62">TESTADO</tspan></text>
    </g>
    <g
       id="g380">
      <text
         class="a"
         id="text72"
         x="736.63123"
         y="101"><tspan
           x="679.73322"
           y="119"
           id="tspan68">NÃO TESTADO</tspan><tspan
           x="688.55322"
           y="139"
           id="tspan70">EM ANIMAIS</tspan></text>
      <g
         id="g242"
         transform="translate(28.184875,2)">
        <g
           class="c"
           transform="translate(677)"
           id="g78">
          <circle
             class="d"
             cx="46.5"
             cy="46.5"
             r="46.5"
             id="circle74" />
          <circle
             class="e"
             cx="46.5"
             cy="46.5"
             r="45.5"
             id="circle76" />
        </g>
        <path
           class="b"
           d="m 745.758,41.928 a 12.192,12.192 0 0 0 -5.108,-6.032 13.056,13.056 0 0 0 -4.638,-1.771 25.54,25.54 0 0 0 -0.646,-6.726 18.3,18.3 0 0 0 -2.619,-6.381 c -1.125,-1.606 -2.349,-2.455 -3.543,-2.455 a 2.427,2.427 0 0 0 -0.526,0.057 c -1.643,0.364 -2.574,2.374 -2.611,5.5 -1.449,-1.484 -3.392,-3.055 -5.127,-3.055 a 2.385,2.385 0 0 0 -1.336,0.387 c -0.831,0.548 -1.676,1.858 -0.988,4.991 a 21.242,21.242 0 0 0 7.942,11.933 9.309,9.309 0 0 0 -0.692,1.542 13.2,13.2 0 0 0 -5.555,-1.559 c -0.435,-0.025 -0.868,-0.038 -1.3,-0.038 a 17.637,17.637 0 0 0 -12.231,4.518 13.974,13.974 0 0 0 -3.8,6.072 4.921,4.921 0 0 0 -4.021,4.959 4.858,4.858 0 0 0 4.372,5 11.706,11.706 0 0 0 3.406,5.1 c 2.757,2.371 6.847,3.574 12.157,3.574 a 14.573,14.573 0 0 0 5.589,-1.014 h 9.987 a 4.163,4.163 0 0 0 3.055,-0.922 2.981,2.981 0 0 0 0.793,-2.183 3.161,3.161 0 0 0 -2.156,-2.852 l 2.582,-8.216 a 8.007,8.007 0 0 0 6.545,-3.56 7.732,7.732 0 0 0 0.469,-6.869 z m -43.3,9.653 c -0.038,0.417 -0.059,0.833 -0.059,1.244 a 20.746,20.746 0 0 0 0.275,3.446 2.694,2.694 0 0 1 -1.344,-2.405 2.736,2.736 0 0 1 1.127,-2.286 z m 34.282,-0.761 -3.23,10.278 a 1.185,1.185 0 0 0 1.068,1.538 c 1.034,0.056 1.369,0.552 1.369,0.784 0,0.38 -0.062,0.47 -0.082,0.489 -0.02,0.019 -0.284,0.246 -1.4,0.246 h -6.484 a 8.864,8.864 0 0 0 2.332,-4.555 7.612,7.612 0 0 0 -4.8,-8.705 1.168,1.168 0 0 0 -0.4,-0.07 1.185,1.185 0 0 0 -0.4,2.3 5.284,5.284 0 0 1 3.263,6.072 c -0.5,2.885 -3.145,5.968 -9.086,5.968 -4.727,0 -8.3,-1.009 -10.611,-3 -2.331,-2.005 -3.512,-5.147 -3.512,-9.338 a 11.3,11.3 0 0 1 3.641,-8.266 15.294,15.294 0 0 1 10.609,-3.87 c 0.381,0 0.767,0.01 1.156,0.033 a 11.517,11.517 0 0 1 5.92,2.093 1.186,1.186 0 0 0 1.839,-1.014 5.75,5.75 0 0 1 1.129,-3.018 5.431,5.431 0 0 1 4.222,-2.4 8.063,8.063 0 0 1 0.85,-0.044 10.1,10.1 0 0 1 5.272,1.579 c 3.916,2.416 5.65,6.738 3.864,9.634 a 5.7,5.7 0 0 1 -5.049,2.448 c -0.1,0 -0.206,0 -0.351,-0.006 a 1.2,1.2 0 0 0 -1.131,0.824 z M 720.891,23.438 a 0.263,0.263 0 0 1 0.063,-0.005 c 0.838,0 3.136,1.539 5.583,4.9 a 0.977,0.977 0 0 0 0.087,0.128 c 0.235,0.326 0.471,0.664 0.705,1.022 a 23.335,23.335 0 0 1 2.7,5.382 7.289,7.289 0 0 0 -2.118,1.551 18.807,18.807 0 0 1 -6.978,-10.485 c -0.373,-1.683 -0.126,-2.397 -0.043,-2.494 z m 12.756,10.542 c -0.209,0.009 -0.413,0.024 -0.61,0.045 -0.254,0.027 -0.508,0.063 -0.758,0.109 a 25.494,25.494 0 0 0 -2.972,-5.953 c -0.2,-0.306 -0.41,-0.608 -0.623,-0.907 -0.642,-4.126 0.106,-6.229 0.506,-6.335 h 0.011 c 0.229,0 0.868,0.392 1.6,1.444 a 15.92,15.92 0 0 1 2.246,5.534 22.906,22.906 0 0 1 0.6,6.063 z"
           id="path80" />
        <path
           class="b"
           d="m 741.046,41.764 a 2.118,2.118 0 1 0 -2.117,2.118 2.12,2.12 0 0 0 2.117,-2.118 z"
           id="path82" />
      </g>
    </g>
    <g
       id="g358">
      <text
         class="a"
         id="text90"
         x="324.27197"
         y="101"><tspan
           x="286.55298"
           y="119"
           id="tspan86">EFICÁCIA</tspan><tspan
           x="268.43597"
           y="139"
           id="tspan88">COMPROVADA</tspan></text>
      <g
         id="g258"
         transform="translate(34.243591,2)">
        <g
           class="c"
           transform="translate(260)"
           id="g96">
          <circle
             class="d"
             cx="46.5"
             cy="46.5"
             r="46.5"
             id="circle92" />
          <circle
             class="e"
             cx="46.5"
             cy="46.5"
             r="45.5"
             id="circle94" />
        </g>
        <g
           transform="translate(-251.188,24.893)"
           id="g104">
          <path
             class="b"
             d="m 557.937,51.573 a 2.9,2.9 0 0 1 -2.067,-0.856 l -2.634,-2.634 a 0.924,0.924 0 0 0 -1.007,-0.2 l -3.439,1.425 a 2.923,2.923 0 0 1 -3.818,-1.581 l -1.425,-3.441 a 0.922,0.922 0 0 0 -0.853,-0.57 h -3.725 a 2.926,2.926 0 0 1 -2.923,-2.923 v -3.725 a 0.921,0.921 0 0 0 -0.569,-0.852 l -3.441,-1.425 a 2.923,2.923 0 0 1 -1.582,-3.819 l 1.425,-3.44 a 0.923,0.923 0 0 0 -0.2,-1.006 l -2.634,-2.633 a 2.921,2.921 0 0 1 0,-4.134 l 2.634,-2.634 a 0.921,0.921 0 0 0 0.2,-1 l -1.425,-3.441 a 2.923,2.923 0 0 1 1.582,-3.819 l 3.441,-1.424 a 0.922,0.922 0 0 0 0.569,-0.853 v -3.73 a 2.926,2.926 0 0 1 2.923,-2.922 h 3.725 a 0.922,0.922 0 0 0 0.853,-0.571 l 1.425,-3.44 a 2.9,2.9 0 0 1 1.582,-1.582 2.9,2.9 0 0 1 2.236,0 l 3.44,1.425 a 0.923,0.923 0 0 0 1.006,-0.2 l 2.634,-2.633 a 2.994,2.994 0 0 1 4.134,0 l 2.633,2.633 a 0.923,0.923 0 0 0 1.007,0.2 l 3.439,-1.425 a 2.927,2.927 0 0 1 3.817,1.583 l 1.425,3.439 a 0.921,0.921 0 0 0 0.853,0.571 h 3.722 a 2.926,2.926 0 0 1 2.923,2.922 v 3.725 a 0.922,0.922 0 0 0 0.569,0.853 l 3.441,1.424 a 2.923,2.923 0 0 1 1.582,3.819 l -1.425,3.441 a 0.923,0.923 0 0 0 0.2,1 l 2.634,2.634 a 2.921,2.921 0 0 1 0,4.134 l -2.634,2.633 a 0.926,0.926 0 0 0 -0.2,1.007 l 1.425,3.439 a 2.923,2.923 0 0 1 -1.582,3.819 l -3.44,1.425 a 0.92,0.92 0 0 0 -0.57,0.852 v 3.725 a 2.926,2.926 0 0 1 -2.923,2.923 h -3.72 a 0.92,0.92 0 0 0 -0.853,0.569 l -1.427,3.447 a 2.925,2.925 0 0 1 -3.819,1.581 l -3.44,-1.425 a 0.922,0.922 0 0 0 -1.006,0.2 L 560,50.717 a 2.9,2.9 0 0 1 -2.063,0.856 z m -5.351,-5.761 a 2.914,2.914 0 0 1 2.064,0.857 l 2.634,2.634 a 0.925,0.925 0 0 0 1.306,0 l 2.633,-2.634 a 2.908,2.908 0 0 1 3.184,-0.633 l 3.442,1.424 a 0.925,0.925 0 0 0 1.206,-0.5 l 1.424,-3.44 a 2.913,2.913 0 0 1 2.7,-1.805 h 3.721 a 0.924,0.924 0 0 0 0.923,-0.923 v -3.724 a 2.913,2.913 0 0 1 1.8,-2.7 l 3.439,-1.425 a 0.922,0.922 0 0 0 0.5,-1.2 L 582.146,28.3 a 2.917,2.917 0 0 1 0.634,-3.185 l 2.634,-2.633 a 0.926,0.926 0 0 0 0,-1.306 L 582.78,18.54 a 2.917,2.917 0 0 1 -0.634,-3.185 l 1.425,-3.441 a 0.923,0.923 0 0 0 -0.5,-1.206 l -3.439,-1.425 a 2.913,2.913 0 0 1 -1.8,-2.7 V 2.858 a 0.924,0.924 0 0 0 -0.923,-0.922 h -3.729 a 2.914,2.914 0 0 1 -2.7,-1.806 l -1.424,-3.439 a 0.921,0.921 0 0 0 -0.5,-0.5 0.919,0.919 0 0 0 -0.706,0 l -3.441,1.425 a 2.915,2.915 0 0 1 -3.185,-0.634 l -2.634,-2.633 a 0.926,0.926 0 0 0 -1.306,0 v 0 l -2.634,2.633 a 2.914,2.914 0 0 1 -3.184,0.634 l -3.442,-1.425 a 0.919,0.919 0 0 0 -0.706,0 0.924,0.924 0 0 0 -0.5,0.5 l -1.418,3.44 a 2.917,2.917 0 0 1 -2.7,1.8 h -3.725 a 0.924,0.924 0 0 0 -0.923,0.922 v 3.73 a 2.911,2.911 0 0 1 -1.8,2.7 l -3.452,1.425 a 0.923,0.923 0 0 0 -0.5,1.206 l 1.425,3.44 a 2.915,2.915 0 0 1 -0.634,3.186 l -2.634,2.633 a 0.926,0.926 0 0 0 0,1.306 l 2.634,2.633 a 2.914,2.914 0 0 1 0.634,3.185 l -1.425,3.441 a 0.922,0.922 0 0 0 0.5,1.2 l 3.44,1.425 a 2.914,2.914 0 0 1 1.8,2.7 v 3.725 a 0.924,0.924 0 0 0 0.923,0.923 h 3.725 a 2.915,2.915 0 0 1 2.7,1.805 l 1.424,3.44 a 0.922,0.922 0 0 0 1.205,0.5 l 3.441,-1.424 a 2.923,2.923 0 0 1 1.128,-0.22 z m 3.991,-52.17 z"
             id="path98" />
          <path
             class="b"
             d="m 557.955,42.825 a 21,21 0 1 1 10.9,-38.942 1.0001181,1.0001181 0 0 1 -1.041,1.708 19.021,19.021 0 1 0 4.973,4.381 1.0003712,1.0003712 0 1 1 1.563,-1.249 21,21 0 0 1 -15.343,34.077 c -0.352,0.016 -0.707,0.025 -1.052,0.025 z"
             id="path100" />
          <path
             class="b"
             d="m 554.937,35.826 a 1,1 0 0 1 -0.708,-0.293 l -10,-10 a 1,1 0 0 1 0,-1.414 l 3,-3 a 1,1 0 0 1 1.415,0 l 6.293,6.293 5.335,-5.336 a 1.0002026,1.0002026 0 1 1 1.415,1.414 l -6.043,6.043 a 1,1 0 0 1 -1.415,0 l -6.292,-6.293 -1.586,1.586 8.586,8.586 16.585,-16.586 -1.585,-1.586 -4.714,4.714 a 1,1 0 1 1 -1.414,-1.414 l 5.42,-5.421 a 1.03,1.03 0 0 1 1.415,0 l 3,3 a 1,1 0 0 1 0,1.414 l -18,18 a 1,1 0 0 1 -0.707,0.293 z"
             id="path102" />
        </g>
      </g>
    </g>
  </g>
</svg>
