<svg xmlns="http://www.w3.org/2000/svg" width="93" height="93" viewBox="0 0 93 93">
  <g id="Grupo_342" data-name="Grupo 342" transform="translate(-845 -9967)">
    <g id="Elipse_12" data-name="Elipse 12" transform="translate(845 9967)" fill="none" stroke="#fff" stroke-width="2">
      <circle cx="46.5" cy="46.5" r="46.5" stroke="none"/>
      <circle cx="46.5" cy="46.5" r="45.5" fill="none"/>
    </g>
    <g id="Grupo_266" data-name="Grupo 266" transform="translate(-104 97)">
      <path id="Caminho_57" data-name="Caminho 57" d="M476.989,418.548a12.192,12.192,0,0,0-5.108-6.032,13.056,13.056,0,0,0-4.638-1.771,25.54,25.54,0,0,0-.646-6.726,18.3,18.3,0,0,0-2.619-6.381c-1.125-1.606-2.349-2.455-3.543-2.455a2.427,2.427,0,0,0-.526.057c-1.643.364-2.574,2.374-2.611,5.5-1.449-1.484-3.392-3.055-5.127-3.055a2.385,2.385,0,0,0-1.336.387c-.831.548-1.676,1.858-.988,4.991a21.242,21.242,0,0,0,7.942,11.933,9.309,9.309,0,0,0-.692,1.542,13.2,13.2,0,0,0-5.555-1.559c-.435-.025-.868-.038-1.3-.038a17.637,17.637,0,0,0-12.231,4.518,13.974,13.974,0,0,0-3.8,6.072,4.921,4.921,0,0,0-4.021,4.959,4.858,4.858,0,0,0,4.372,5,11.706,11.706,0,0,0,3.406,5.1c2.757,2.371,6.847,3.574,12.157,3.574a14.573,14.573,0,0,0,5.589-1.014l9.987,0a4.163,4.163,0,0,0,3.055-.922,2.981,2.981,0,0,0,.793-2.183,3.161,3.161,0,0,0-2.156-2.852l2.582-8.216a8.007,8.007,0,0,0,6.545-3.56A7.732,7.732,0,0,0,476.989,418.548Zm-43.3,9.653c-.038.417-.059.833-.059,1.244a20.746,20.746,0,0,0,.275,3.446,2.694,2.694,0,0,1-1.344-2.405A2.736,2.736,0,0,1,433.688,428.2Zm34.282-.761-3.23,10.278a1.185,1.185,0,0,0,1.068,1.538c1.034.056,1.369.552,1.369.784,0,.38-.062.47-.082.489s-.284.246-1.4.246l-6.484,0a8.864,8.864,0,0,0,2.332-4.555,7.612,7.612,0,0,0-4.8-8.705,1.168,1.168,0,0,0-.4-.07,1.185,1.185,0,0,0-.4,2.3,5.284,5.284,0,0,1,3.263,6.072c-.5,2.885-3.145,5.968-9.086,5.968-4.727,0-8.3-1.009-10.611-3-2.331-2.005-3.512-5.147-3.512-9.338a11.3,11.3,0,0,1,3.641-8.266,15.294,15.294,0,0,1,10.609-3.87c.381,0,.767.01,1.156.033a11.517,11.517,0,0,1,5.92,2.093,1.186,1.186,0,0,0,1.839-1.014,5.75,5.75,0,0,1,1.129-3.018,5.431,5.431,0,0,1,4.222-2.4,8.063,8.063,0,0,1,.85-.044,10.1,10.1,0,0,1,5.272,1.579c3.916,2.416,5.65,6.738,3.864,9.634a5.7,5.7,0,0,1-5.049,2.448c-.1,0-.206,0-.351-.006A1.2,1.2,0,0,0,467.969,427.44Zm-15.849-27.382a.263.263,0,0,1,.063-.005c.838,0,3.136,1.539,5.583,4.9a.977.977,0,0,0,.087.128c.235.326.471.664.705,1.022a23.335,23.335,0,0,1,2.7,5.382,7.289,7.289,0,0,0-2.118,1.551,18.807,18.807,0,0,1-6.978-10.485C451.791,400.868,452.038,400.154,452.121,400.057ZM464.878,410.6c-.209.009-.413.024-.61.045-.254.027-.508.063-.758.109a25.494,25.494,0,0,0-2.972-5.953c-.2-.306-.41-.608-.623-.907-.642-4.126.106-6.229.506-6.335h.011c.229,0,.868.392,1.6,1.444a15.92,15.92,0,0,1,2.246,5.534A22.906,22.906,0,0,1,464.878,410.6Z" transform="translate(540.769 9493.38)" fill="#f6ebe1"/>
      <path id="Caminho_58" data-name="Caminho 58" d="M482.678,424.177a2.118,2.118,0,1,0-2.117,2.118A2.12,2.12,0,0,0,482.678,424.177Z" transform="translate(530.368 9487.587)" fill="#f6ebe1"/>
    </g>
  </g>
</svg>
