<svg xmlns="http://www.w3.org/2000/svg" width="90" height="90" viewBox="0 0 90 90"><defs><style>.a,.e{fill:none;}.a{stroke:#ab896d;stroke-width:2px;}.b{fill:#e2cbbb;}.c{fill:#ab896d;}.d{stroke:none;}</style></defs><g transform="translate(-562 -1745)"><g class="a" transform="translate(562 1745)"><circle class="d" cx="45" cy="45" r="45"/><circle class="e" cx="45" cy="45" r="44"/></g><g transform="translate(583.913 1768.885)"><path class="b" d="M393.324,86.972a9.121,9.121,0,0,0-9.121-9.121h0a9.06,9.06,0,0,0-6.448,2.671L361.484,96.794a.884.884,0,1,0,1.249,1.25L379,81.773A7.3,7.3,0,0,1,383.13,79.7l-4.554,4.554c-.012.012-.024.024-.035.037a5.9,5.9,0,0,0,8.351,8.343l.032-.031,4.55-4.549a7.317,7.317,0,0,1-2.071,4.12l-16.271,16.271a.884.884,0,1,0,1.249,1.25l16.272-16.271A9.056,9.056,0,0,0,393.324,86.972Zm-7.621,4.35,0,0-.02.019a4.135,4.135,0,0,1-5.853-5.842l.028-.029,5.724-5.724a7.347,7.347,0,0,1,5.846,5.852Z" transform="translate(-359.691 -64.41)"/><path class="b" d="M383.446,87.414a4.729,4.729,0,0,0-1.923-1.17.884.884,0,1,0-.538,1.684,2.994,2.994,0,0,1,1.947,1.947.885.885,0,0,0,.842.615.87.87,0,0,0,.27-.042.884.884,0,0,0,.572-1.111A4.744,4.744,0,0,0,383.446,87.414Z" transform="translate(-359.471 -64.314)"/><path class="b" d="M368.941,99.259a.884.884,0,0,0-1.25,1.25l2.661,2.661a.884.884,0,0,0,1.25-1.25Z" transform="translate(-359.62 -64.167)"/><path class="c" d="M403.991,88.4c-.139-.369-.276-.732-.407-1.089-.859-2.347-.205-4.855.486-7.511A21.6,21.6,0,0,0,405,74.475a6.1,6.1,0,0,0-2.248-4.6,9.568,9.568,0,0,0-7.859-1.768c-5.447.876-8.428.381-12.265-2.035-5.125-3.228-9.694-.784-12.26,2.58a27.445,27.445,0,0,1-5.983,5.372,17.673,17.673,0,0,0-1.645,1.262,8.434,8.434,0,0,0-3.021,6.512c.159,4.241,3.922,7.348,4.081,7.477a.884.884,0,1,0,1.116-1.372c-.033-.026-3.3-2.722-3.431-6.171a6.759,6.759,0,0,1,2.471-5.163,17.634,17.634,0,0,1,1.46-1.11,28.986,28.986,0,0,0,6.358-5.736c1.015-1.331,4.731-5.421,9.913-2.157,4.211,2.652,7.615,3.229,13.487,2.285a7.849,7.849,0,0,1,6.431,1.368,4.345,4.345,0,0,1,1.627,3.25,20.01,20.01,0,0,1-.868,4.876c-.729,2.8-1.484,5.7-.435,8.563.133.363.272.732.414,1.107,1.479,3.918,3.156,8.359-.118,13.139-2.51,3.662-5.864,6.032-9.2,6.5-3.078.434-6.219-.648-9.336-3.219a.884.884,0,0,0-1.125,1.365,14.349,14.349,0,0,0,9.119,3.716,11.329,11.329,0,0,0,1.589-.111c5.244-.74,8.775-4.863,10.414-7.255C407.473,97.618,405.542,92.5,403.991,88.4Z" transform="translate(-359.709 -64.563)"/></g></g></svg>