<svg xmlns="http://www.w3.org/2000/svg" width="93" height="93" viewBox="0 0 93 93">
  <g id="Grupo_343" data-name="Grupo 343" transform="translate(-1053 -9967)">
    <g id="Elipse_9" data-name="Elipse 9" transform="translate(1053 9967)" fill="none" stroke="#fff" stroke-width="2">
      <circle cx="46.5" cy="46.5" r="46.5" stroke="none"/>
      <circle cx="46.5" cy="46.5" r="45.5" fill="none"/>
    </g>
    <g id="Grupo_265" data-name="Grupo 265" transform="translate(527 97)">
      <g id="Grupo_263" data-name="Grupo 263" transform="translate(549.961 9897.595) rotate(-9)">
        <path id="Caminho_64" data-name="Caminho 64" d="M15.786,37.285l.872-.732a11.183,11.183,0,0,1-1.311-9.63l-.052.072-.939-5.917,6.224-8.566a25.067,25.067,0,0,1,2.526,3.732l-3.485,4.8a15.1,15.1,0,0,1,4.2-2.073l.273-.377c.027.092.042.187.065.28.448-.128.9-.239,1.357-.323a2.157,2.157,0,0,1,.263-.059c.168-.036.341-.065.512-.1a11.764,11.764,0,0,0-.881-2.409,1.133,1.133,0,0,0-.117-.24,28.71,28.71,0,0,0-3.918-5.686.756.756,0,0,0-.066-.077A73.914,73.914,0,0,0,10.74.212a1.088,1.088,0,0,0-1.521.23L9.21.454h0C8.9.886,3.651,8.342,1.219,15.521a1.059,1.059,0,0,0-.074.228,16.869,16.869,0,0,0-1.03,7.585C1.3,30.85,6.933,35.245,14.287,34.554l.4,2.547a1.086,1.086,0,0,0,.621.819A1.987,1.987,0,0,1,15.786,37.285ZM14.539,6.21,12.456,9.077l-.856-5.4C12.433,4.361,13.447,5.224,14.539,6.21ZM9.449,4.015h0L10.872,13,6.194,9.6C7.349,7.4,8.542,5.437,9.449,4.015ZM5.2,11.572l6.151,4.469.937,5.92L3.5,15.572C3.952,14.324,4.522,12.987,5.2,11.572ZM2.259,23A12.866,12.866,0,0,1,2.8,17.753v0L12.773,25l1.172,7.4C7.8,32.923,3.262,29.326,2.259,23Zm11.616-4.961-.938-5.92,3.2-4.408.388.375q1.43,1.4,2.6,2.718Z" fill="#f6ebe1"/>
      </g>
      <path id="Caminho_65" data-name="Caminho 65" d="M2.26,18.059.646,19.414a.891.891,0,0,0,1.145,1.363l1.615-1.355c4.169,4.372,10,4.678,14.766.679a9.631,9.631,0,0,0,1.789-2.073.887.887,0,0,0,.117-.185A23.549,23.549,0,0,0,22.409,12.7a.707.707,0,0,0,.026-.078,60.443,60.443,0,0,0,2.4-11.519h0a.89.89,0,0,0-.8-.969h-.013A56.31,56.31,0,0,0,10.093.883.93.93,0,0,0,9.9.927,13.8,13.8,0,0,0,4.155,3.4C-.614,7.4-1.322,13.2,2.26,18.059ZM22.767,3.169c-.13.873-.309,1.947-.541,3.126l-2.882-.252ZM17.416,7.661l4.437.388c-.033.142-.066.285-.1.429q-.378,1.59-.807,2.969l-7.282-.636ZM11.734,12.43l8.624.753a20.5,20.5,0,0,1-1.55,3.345L7.983,15.583ZM6.053,17.2l11.524,1.006a6.2,6.2,0,0,1-.55.532c-4.012,3.369-8.74,3.157-12.255-.462ZM21.623,1.806l-5.7,4.783.411-4.708C18.364,1.763,20.245,1.769,21.623,1.806Zm-7.085.208L14,8.206l-3.753,3.151L11.017,2.5a35.325,35.325,0,0,1,3.524-.489Zm-5.344.919L8.316,12.972,3.625,16.911C.67,12.821,1.281,8.129,5.293,4.761a10.515,10.515,0,0,1,3.9-1.829Z" transform="translate(568.57 9913.579) rotate(-9)" fill="#f6ebe1"/>
    </g>
  </g>
</svg>
