<svg xmlns="http://www.w3.org/2000/svg" width="93" height="93" viewBox="0 0 93 93">
  <g id="Grupo_341" data-name="Grupo 341" transform="translate(-636 -9967)">
    <path id="Caminho_61" data-name="Caminho 61" d="M1543.1,353.378s0-.009,0-.014.007-.038.011-.057a.941.941,0,0,0,.018-.114c0-.022,0-.044,0-.066a1.027,1.027,0,0,0,0-.113c0-.02,0-.04-.007-.061a.976.976,0,0,0-.04-.162s0,0,0-.007l0-.006a.959.959,0,0,0-.072-.152c-.01-.018-.022-.034-.033-.051a.968.968,0,0,0-.067-.09c-.015-.017-.029-.034-.044-.05a.967.967,0,0,0-.083-.074c-.016-.013-.031-.027-.048-.039l-.01-.008c-.35-.244-8.658-5.949-15.788-3.422a10.671,10.671,0,0,0-1.08.456,12.011,12.011,0,0,0,.966-4.593c0-7.563-8.151-13.49-8.5-13.738l-.013-.008c-.015-.01-.031-.018-.046-.028a.919.919,0,0,0-.1-.057c-.019-.009-.039-.016-.058-.024a.962.962,0,0,0-.112-.035c-.019,0-.038-.01-.057-.013a.966.966,0,0,0-.35,0c-.019,0-.038.008-.057.013a.972.972,0,0,0-.112.035c-.02.007-.039.015-.058.024a.889.889,0,0,0-.1.057c-.016.009-.031.017-.046.028l-.013.008c-.324.232-7.446,5.412-8.393,12.252a10.815,10.815,0,0,0-.106,1.487,12.014,12.014,0,0,0,.965,4.59,10.46,10.46,0,0,0-1.079-.453,11.909,11.909,0,0,0-4.444-.631h0c-5.75.214-11.062,3.858-11.34,4.052l-.011.009c-.016.011-.029.024-.044.036a1,1,0,0,0-.087.078c-.015.016-.028.032-.042.048a.9.9,0,0,0-.069.093c-.011.017-.022.033-.032.05a.953.953,0,0,0-.072.152l0,.006v.007a1,1,0,0,0-.04.162c0,.021,0,.041-.007.061a.92.92,0,0,0,0,.113c0,.022,0,.044,0,.066a.99.99,0,0,0,.018.114c0,.019.006.038.012.057s0,.009,0,.014a26.888,26.888,0,0,0,2.312,5.293,22.885,22.885,0,0,0,1.369,2.125,1.024,1.024,0,0,0,.1.14,14.91,14.91,0,0,0,4.919,4.42.976.976,0,0,0,.168.088,10.576,10.576,0,0,0,1.238.534,11.675,11.675,0,0,0,3.924.644,22.249,22.249,0,0,0,10.337-3.122v2.943h-3.737a3.325,3.325,0,0,0-.971,6.505V391.84a5.68,5.68,0,0,0,11.36,0V372.948a3.325,3.325,0,0,0-.971-6.505h-3.738V363.5a22.239,22.239,0,0,0,10.337,3.122,11.693,11.693,0,0,0,3.924-.644,11.858,11.858,0,0,0,3.771-2.25.967.967,0,0,0,.164-.147,19.355,19.355,0,0,0,3.863-4.91A26.886,26.886,0,0,0,1543.1,353.378Zm-26.314-19.515v6.927l-3.325-3.325A25.2,25.2,0,0,1,1516.784,333.863Zm-4.425,5.249,4.425,4.425v5.576l-5.995-5.995A12.389,12.389,0,0,1,1512.358,339.112Zm-8.777,11.131,3.134,6.574-2.363-.837-.006,0-8.737-3.1A21.479,21.479,0,0,1,1503.582,350.243Zm-6.337,8.806a25.186,25.186,0,0,1-2.285-4.337l6.529,2.314Zm4.436,4.4a12.408,12.408,0,0,1-3.251-2.817l5.65-2.693,5.255,1.862Zm2.467.976,7.776-3.707,3.567,1.264C1513.037,363.325,1508.35,365.389,1504.147,364.429Zm8.045-5.672h0l-2.889-1.024-3.57-7.488a9.222,9.222,0,0,1,2.194.475c4.432,1.57,7.064,6.649,8.21,9.435Zm-1.5-12.989,6.091,6.091v3.785C1514.7,353.778,1511.192,350.05,1510.693,345.769Zm2.354,25.383a1.383,1.383,0,1,1,0-2.766h3.737v2.766Zm8.446,9.353h-2.56a.971.971,0,1,0,0,1.942h2.56v2.913h-2.56a.971.971,0,1,0,0,1.942h2.56v2.913h-2.56a.971.971,0,1,0,0,1.942h2.544a3.736,3.736,0,0,1-7.459-.318V378.868a3.829,3.829,0,0,0,1.331.241,7.262,7.262,0,0,0,3.118-.94c1.327-.642,2.136-.986,3.026-.518Zm0-4.915a5.8,5.8,0,0,0-3.872.831c-1.541.745-2.457,1.114-3.6.25v-3.576h2.766v.795a.971.971,0,1,0,1.942,0v-.795h2.767Zm.971-7.2a1.383,1.383,0,0,1,0,2.766h-3.738v-2.766Zm17.437-15.5-6.529,2.314,2.024-4.245A25.21,25.21,0,0,1,1539.9,352.881Zm-10.725-2.56a12.411,12.411,0,0,1,4.3.141l-2.693,5.65-5.255,1.862Zm-10.449-16.458a21.481,21.481,0,0,1,5.15,6.633l-5.15,5.15Zm0,14.53,5.866-5.866a9.22,9.22,0,0,1,.285,2.227c0,4.7-3.907,8.879-6.151,10.89Zm7.919,2.724-3.707,7.775-3.567,1.264C1520.434,357.572,1522.775,353.017,1526.644,351.117Zm5.694,13.03c-4.432,1.571-9.674-.717-12.319-2.16l6.834-2.422,7.489,3.57A9.224,9.224,0,0,1,1532.339,364.147Zm3.678-2.365-6.574-3.134,11.106-3.935A21.482,21.482,0,0,1,1536.017,361.781Z" transform="translate(-835.255 9648.347)" fill="#f6ebe1"/>
    <g id="Elipse_9" data-name="Elipse 9" transform="translate(636 9967)" fill="none" stroke="#fff" stroke-width="2">
      <circle cx="46.5" cy="46.5" r="46.5" stroke="none"/>
      <circle cx="46.5" cy="46.5" r="45.5" fill="none"/>
    </g>
    <path id="Caminho_30" data-name="Caminho 30" d="M5320.967,3019.7l-64.654,64.654" transform="translate(-4607.325 6961.517)" fill="none" stroke="#fff" stroke-width="2"/>
  </g>
</svg>
