<svg xmlns="http://www.w3.org/2000/svg" width="93" height="93" viewBox="0 0 93 93">
  <g id="Grupo_339" data-name="Grupo 339" transform="translate(-220 -9967)">
    <g id="Grupo_264" data-name="Grupo 264" transform="translate(-98 97)">
      <g id="Grupo_224" data-name="Grupo 224" transform="translate(338.867 9923.03)">
        <path id="Caminho_46" data-name="Caminho 46" d="M280.571,452.025a28.117,28.117,0,0,1-10.606-2.171l-.5-.236a10.225,10.225,0,0,0-2.819-1.007,10.576,10.576,0,0,0-1.925-.174,13.04,13.04,0,0,0-3.819.607,11.806,11.806,0,0,0-2.274.971,6.721,6.721,0,0,1-3.1.96c-.163.011-.411.025-.718.025a7,7,0,0,1-3.56-.867c-2.591-1.507-3.594-4.909-3.669-7.589-.082-2.949.852-5.429,2.437-6.474a3.625,3.625,0,0,1,2.11-.549,12.815,12.815,0,0,0,2.386-.284,23.183,23.183,0,0,0,4.358-1.533c1.718-.707,3-1.25,4.037-1.688,2.973-1.257,3.663-1.549,5.012-1.584l.251,0a9.477,9.477,0,0,1,3.746.882c.49.189,1.01.388,1.639.609a61.118,61.118,0,0,0,9.833,2.437c1.1.2,2.138.388,3.1.61,1.939-1.509,3.6-2.243,5.081-2.243a4.146,4.146,0,0,1,1.095.145c.127.036.248.076.363.115a2.615,2.615,0,0,0,.918.187h0a2.1,2.1,0,0,0,1.056-.284,3.915,3.915,0,0,1,1.816-.476c.062,0,.127,0,.192,0a5.829,5.829,0,0,1,2.086.553,2.3,2.3,0,0,0,.941.2l.206,0,.138,0a1.135,1.135,0,0,1,.168-.012,1.224,1.224,0,0,1,.347.051,5.029,5.029,0,0,1,1.658.495,3.946,3.946,0,0,1,.526,7.2c-.068.042-.123.076-.17.112l-9.182,6.86c-.1.075-.2.147-.306.211a23.672,23.672,0,0,1-11.972,3.934c-.215.008-.423.011-.623.011Zm-15.846-6.036a13.061,13.061,0,0,1,2.373.216,12.491,12.491,0,0,1,3.439,1.21l.465.223a26.259,26.259,0,0,0,9.6,1.942l.225,0a20.953,20.953,0,0,0,11.275-3.56c.052-.033.1-.069.157-.108l9.182-6.862c.119-.088.238-.165.349-.233a1.743,1.743,0,0,0,.92-1.576c-.056-.509-.477-.964-1.255-1.354a2.548,2.548,0,0,0-.576-.205l-9.7,7.808a4.725,4.725,0,0,1-3.606,1.165c-.753,0-1.565-.066-2.349-.129-.62-.05-1.262-.1-1.88-.122-1.347-.045-2.4-.179-3.328-.3a18.86,18.86,0,0,0-2.427-.206,10.144,10.144,0,0,0-2.031.208,12.864,12.864,0,0,0-2.271.676,1.224,1.224,0,0,1-1.59-.68,1.225,1.225,0,0,1,.681-1.591,15.375,15.375,0,0,1,2.7-.8,12.69,12.69,0,0,1,2.508-.257,21.142,21.142,0,0,1,2.736.227c.88.112,1.875.239,3.1.279.658.022,1.322.074,1.966.126.75.061,1.5.122,2.16.122a3.826,3.826,0,0,0,1.643-.253.988.988,0,0,1,.079-.07l.217-.176c.5-.677.836-1.7.514-2.215a5.037,5.037,0,0,0-3.213-1.934h-.06a1.211,1.211,0,0,1-.635-.178c-.913-.216-1.945-.4-3.136-.621a63.318,63.318,0,0,1-10.212-2.535c-.674-.238-1.223-.449-1.707-.635a7.231,7.231,0,0,0-2.864-.72l-.187,0c-.9.029-1.392.237-4.121,1.39-1.045.442-2.337.988-4.066,1.7a24.671,24.671,0,0,1-4.787,1.664,15.058,15.058,0,0,1-2.791.335c-.607.024-.7.038-.862.147-.843.556-1.393,2.35-1.336,4.363.071,2.541,1.034,4.716,2.454,5.542a4.627,4.627,0,0,0,2.341.534c.238,0,.431-.011.556-.019a4.394,4.394,0,0,0,2.1-.677,14.02,14.02,0,0,1,2.709-1.151,15.659,15.659,0,0,1,4.1-.708C264.434,445.992,264.58,445.989,264.725,445.989Zm27.351-7.8a3.232,3.232,0,0,1,.433,1.089l5.248-4.223a2.977,2.977,0,0,0-.865-.2l-.074,0a1.493,1.493,0,0,0-.715.215l-.966.709a1.265,1.265,0,0,1-.132.113l-2.986,2.211Zm-2.655-2.275a7.718,7.718,0,0,1,.826.455l1.6-1.183a1.8,1.8,0,0,0-.261-.018A4.606,4.606,0,0,0,289.42,435.918Z" transform="translate(-247.577 -430.428)" fill="#f6ebe1"/>
      </g>
      <g id="Grupo_227" data-name="Grupo 227" transform="translate(356.837 9890.525)">
        <g id="Grupo_225" data-name="Grupo 225">
          <path id="Caminho_47" data-name="Caminho 47" d="M282.045,419.614a10.87,10.87,0,0,1-10.8-10.039,10.719,10.719,0,0,1,.836-5.043l3.944-8.517,3.476-7.226a1.966,1.966,0,0,1,1.7-1.116l.077,0a1.974,1.974,0,0,1,1.705.986l4,6.928,4.679,8.192a10.836,10.836,0,0,1-9.449,15.836Zm-3.807-22.556-3.916,8.457a8.294,8.294,0,0,0-.637,3.882,8.415,8.415,0,0,0,8.361,7.77h.134a8.392,8.392,0,0,0,7.331-12.235l-4.644-8.128-3.549-6.147Z" transform="translate(-271.215 -387.67)" fill="#f6ebe1"/>
        </g>
        <g id="Grupo_226" data-name="Grupo 226" transform="translate(3.686 14.834)">
          <path id="Caminho_48" data-name="Caminho 48" d="M276.708,414.533l-.136-.036c-.566-.2-.541-1-.473-1.59a11.745,11.745,0,0,1,.62-2.46c.273-.765,1.243-3.264,2.24-3.264h.074l.137.036c.566.2.541,1.005.473,1.591a11.772,11.772,0,0,1-.62,2.459c-.274.766-1.243,3.264-2.24,3.264Z" transform="translate(-276.064 -407.183)" fill="#f6ebe1"/>
        </g>
      </g>
      <g id="Elipse_10" data-name="Elipse 10" transform="translate(318 9870)" fill="none" stroke="#fff" stroke-width="2">
        <circle cx="46.5" cy="46.5" r="46.5" stroke="none"/>
        <circle cx="46.5" cy="46.5" r="45.5" fill="none"/>
      </g>
    </g>
  </g>
</svg>
