<svg xmlns="http://www.w3.org/2000/svg" width="93" height="93" viewBox="0 0 93 93">
  <g id="Grupo_340" data-name="Grupo 340" transform="translate(-428 -9967)">
    <g id="Elipse_12" data-name="Elipse 12" transform="translate(428 9967)" fill="none" stroke="#fff" stroke-width="2">
      <circle cx="46.5" cy="46.5" r="46.5" stroke="none"/>
      <circle cx="46.5" cy="46.5" r="45.5" fill="none"/>
    </g>
    <g id="g5390" transform="translate(-83.188 9991.893)">
      <path id="Caminho_65" data-name="Caminho 65" d="M557.937,51.573a2.9,2.9,0,0,1-2.067-.856l-2.634-2.634a.924.924,0,0,0-1.007-.2l-3.439,1.425a2.923,2.923,0,0,1-3.818-1.581l-1.425-3.441a.922.922,0,0,0-.853-.57h-3.725a2.926,2.926,0,0,1-2.923-2.923V37.068a.921.921,0,0,0-.569-.852l-3.441-1.425a2.923,2.923,0,0,1-1.582-3.819l1.425-3.44a.923.923,0,0,0-.2-1.006l-2.634-2.633a2.921,2.921,0,0,1,0-4.134l2.634-2.634a.921.921,0,0,0,.2-1l-1.425-3.441a2.923,2.923,0,0,1,1.582-3.819l3.441-1.424a.922.922,0,0,0,.569-.853V2.858a2.926,2.926,0,0,1,2.923-2.922h3.725a.922.922,0,0,0,.853-.571l1.425-3.44a2.9,2.9,0,0,1,1.582-1.582,2.9,2.9,0,0,1,2.236,0l3.44,1.425a.923.923,0,0,0,1.006-.2l2.634-2.633a2.994,2.994,0,0,1,4.134,0l2.633,2.633a.923.923,0,0,0,1.007.2l3.439-1.425A2.927,2.927,0,0,1,570.9-4.074l1.425,3.439a.921.921,0,0,0,.853.571H576.9a2.926,2.926,0,0,1,2.923,2.922V6.583a.922.922,0,0,0,.569.853l3.441,1.424a2.923,2.923,0,0,1,1.582,3.819l-1.425,3.441a.923.923,0,0,0,.2,1l2.634,2.634a2.921,2.921,0,0,1,0,4.134l-2.634,2.633a.926.926,0,0,0-.2,1.007l1.425,3.439a2.923,2.923,0,0,1-1.582,3.819l-3.44,1.425a.92.92,0,0,0-.57.852v3.725a2.926,2.926,0,0,1-2.923,2.923H573.18a.92.92,0,0,0-.853.569L570.9,47.727a2.925,2.925,0,0,1-3.819,1.581l-3.44-1.425a.922.922,0,0,0-1.006.2L560,50.717A2.9,2.9,0,0,1,557.937,51.573Zm-5.351-5.761a2.914,2.914,0,0,1,2.064.857l2.634,2.634a.925.925,0,0,0,1.306,0l2.633-2.634a2.908,2.908,0,0,1,3.184-.633l3.442,1.424a.925.925,0,0,0,1.206-.5l1.424-3.44a2.913,2.913,0,0,1,2.7-1.805H576.9a.924.924,0,0,0,.923-.923V37.068a2.913,2.913,0,0,1,1.8-2.7l3.439-1.425a.922.922,0,0,0,.5-1.2L582.146,28.3a2.917,2.917,0,0,1,.634-3.185l2.634-2.633a.926.926,0,0,0,0-1.306L582.78,18.54a2.917,2.917,0,0,1-.634-3.185l1.425-3.441a.923.923,0,0,0-.5-1.206l-3.439-1.425a2.913,2.913,0,0,1-1.8-2.7V2.858a.924.924,0,0,0-.923-.922H573.18a2.914,2.914,0,0,1-2.7-1.806l-1.424-3.439a.921.921,0,0,0-.5-.5.919.919,0,0,0-.706,0l-3.441,1.425a2.915,2.915,0,0,1-3.185-.634L558.59-5.651a.926.926,0,0,0-1.306,0h0L554.65-3.018a2.914,2.914,0,0,1-3.184.634l-3.442-1.425a.919.919,0,0,0-.706,0,.924.924,0,0,0-.5.5L545.4.131a2.917,2.917,0,0,1-2.7,1.8h-3.725a.924.924,0,0,0-.923.922V6.583a2.911,2.911,0,0,1-1.8,2.7L532.8,10.708a.923.923,0,0,0-.5,1.206l1.425,3.44a2.915,2.915,0,0,1-.634,3.186l-2.634,2.633a.926.926,0,0,0,0,1.306l2.634,2.633a2.914,2.914,0,0,1,.634,3.185L532.3,31.738a.922.922,0,0,0,.5,1.2l3.44,1.425a2.914,2.914,0,0,1,1.8,2.7v3.725a.924.924,0,0,0,.923.923h3.725a2.915,2.915,0,0,1,2.7,1.805l1.424,3.44a.922.922,0,0,0,1.205.5l3.441-1.424A2.923,2.923,0,0,1,552.586,45.812Zm3.991-52.17h0Z" fill="#f6ebe1"/>
      <path id="Caminho_66" data-name="Caminho 66" d="M557.955,42.825a21,21,0,1,1,10.9-38.942,1,1,0,0,1-1.041,1.708,19.021,19.021,0,1,0,4.973,4.381,1,1,0,1,1,1.563-1.249A21,21,0,0,1,559.007,42.8C558.655,42.816,558.3,42.825,557.955,42.825Z" fill="#f6ebe1"/>
      <path id="Caminho_67" data-name="Caminho 67" d="M554.937,35.826a1,1,0,0,1-.708-.293l-10-10a1,1,0,0,1,0-1.414l3-3a1,1,0,0,1,1.415,0l6.293,6.293,5.335-5.336a1,1,0,1,1,1.415,1.414l-6.043,6.043a1,1,0,0,1-1.415,0l-6.292-6.293-1.586,1.586,8.586,8.586,16.585-16.586-1.585-1.586-4.714,4.714a1,1,0,1,1-1.414-1.414l5.42-5.421a1.03,1.03,0,0,1,1.415,0l3,3a1,1,0,0,1,0,1.414l-18,18A1,1,0,0,1,554.937,35.826Z" fill="#f6ebe1"/>
    </g>
  </g>
</svg>
