<svg xmlns="http://www.w3.org/2000/svg" width="90" height="90" viewBox="0 0 90 90"><defs><style>.a,.e{fill:none;}.a{stroke:#ab896d;stroke-width:2px;}.b{fill:#e2cbbb;}.c{fill:#ab896d;}.d{stroke:none;}</style></defs><g transform="translate(-1936 -8886)"><g class="a" transform="translate(1936 8886)"><circle class="d" cx="45" cy="45" r="45"/><circle class="e" cx="45" cy="45" r="44"/></g><g transform="translate(1957.859 8909.204)"><path class="b" d="M105.835,102.059H61.206a.826.826,0,1,1,0-1.653h44.629a.826.826,0,1,1,0,1.653Z" transform="translate(-60.38 -64.869)"/><path class="b" d="M105.835,107.059H61.206a.826.826,0,0,1,0-1.653h44.629a.826.826,0,1,1,0,1.653Z" transform="translate(-60.38 -65.736)"/><g transform="translate(0 0)"><path class="c" d="M81.514,73.671a4.132,4.132,0,1,1,4.132-4.132A4.137,4.137,0,0,1,81.514,73.671Zm0-6.612a2.479,2.479,0,1,0,2.479,2.479A2.482,2.482,0,0,0,81.514,67.059Z" transform="translate(-72.422 -60.447)"/><path class="c" d="M82.208,63.538a.827.827,0,0,1-.826-.826V60.232a.826.826,0,1,1,1.653,0v2.479A.826.826,0,0,1,82.208,63.538Z" transform="translate(-73.117 -59.406)"/><path class="c" d="M82.208,80.538a.827.827,0,0,1-.826-.826V77.232a.826.826,0,0,1,1.653,0v2.479A.826.826,0,0,1,82.208,80.538Z" transform="translate(-73.117 -62.356)"/><path class="c" d="M87.158,65.742a.826.826,0,0,1-.584-1.411l1.753-1.753A.826.826,0,1,1,89.5,63.747L87.743,65.5A.827.827,0,0,1,87.158,65.742Z" transform="translate(-73.976 -59.914)"/><path class="c" d="M75.137,77.764a.827.827,0,0,1-.584-1.412L76.307,74.6a.826.826,0,0,1,1.169,1.169l-1.754,1.755A.824.824,0,0,1,75.137,77.764Z" transform="translate(-71.889 -62)"/><path class="c" d="M92,71.059H89.983a.844.844,0,0,1,0-1.653H92a.844.844,0,0,1,0,1.653Z" transform="translate(-74.492 -61.141)"/><path class="c" d="M74.688,71.061h-2.48a.826.826,0,1,1,0-1.653h2.48a.826.826,0,1,1,0,1.653Z" transform="translate(-71.381 -61.142)"/><path class="c" d="M88.911,77.762a.824.824,0,0,1-.584-.242l-1.753-1.753A.827.827,0,1,1,87.743,74.6L89.5,76.351a.826.826,0,0,1-.584,1.411Z" transform="translate(-73.976 -62)"/><path class="c" d="M76.889,65.743A.824.824,0,0,1,76.3,65.5l-1.754-1.755a.826.826,0,1,1,1.169-1.169l1.754,1.755a.826.826,0,0,1-.584,1.411Z" transform="translate(-71.889 -59.914)"/></g><path class="b" d="M98.457,84.57a.83.83,0,0,0-.446-.447.839.839,0,0,0-.317-.064H93.562a.826.826,0,1,0,0,1.653H95.7l-7.922,7.922L76.791,82.648a.826.826,0,0,0-1.169,1.169l11.57,11.57a.826.826,0,0,0,1.169,0l8.507-8.507v2.137a.826.826,0,0,0,1.653,0V84.885A.819.819,0,0,0,98.457,84.57Z" transform="translate(-62.983 -61.745)"/><path class="b" d="M93.164,89.017a.824.824,0,0,1-.584-.242l-4.957-4.958a.826.826,0,0,1,1.169-1.169l4.957,4.958a.826.826,0,0,1-.584,1.411Z" transform="translate(-65.066 -61.745)"/><path class="b" d="M112.209,84.917a.83.83,0,0,0-.446-.447.839.839,0,0,0-.317-.064h-4.132a.826.826,0,1,0,0,1.653h2.137l-7.922,7.922-2.645-2.645a.826.826,0,0,0-1.169,1.169l3.229,3.229a.826.826,0,0,0,1.169,0l8.507-8.507v2.137a.826.826,0,1,0,1.653,0V85.232A.819.819,0,0,0,112.209,84.917Z" transform="translate(-65.991 -62.092)"/></g></g></svg>